# xmcd
#
# Track frame offsets: 
#        150
#        19552
#        42563
#        64839
#
# Disc length: 1171 seconds
#
# Revision: 0
# Processed by: cddbd v1.5.2PL0 Copyright (c) Steve Scherf et al.
# Submitted via: ExactAudioCopyFreeDBPlugin 1.0
#
DISCID=2e049104
DTITLE=Lorna Reid - Still Waters
DYEAR=1900
DGENRE=Blues
TTITLE0=My Hotel Wrecking Days Are Over
TTITLE1=Miss Idaho
TTITLE2=Still Waters Run Deep
TTITLE3=Flow Gently Sweet Afton
EXTD=
EXTT0=
EXTT1=
EXTT2=
EXTT3=
PLAYORDER=
